<svg aria-hidden="true" style="position: absolute; width: 0; height: 0; overflow: hidden;" version="1.1" xmlns="http://www.w3.org/2000/svg" xmlns:xlink="http://www.w3.org/1999/xlink">
<defs>
<symbol id="basket" viewBox="0 0 40 32">
<path d="M40.027 7.082l-5.659 12.551c-0.282 0.627-0.884 1.064-1.592 1.104l-0.005 0-16.248 1.084 0.936 2.686h17.709c2.080 0 3.765 1.686 3.765 3.765s-1.686 3.765-3.765 3.765c-2.079 0-3.764-1.684-3.765-3.763v-0h-17.572c-0.001 2.079-1.687 3.763-3.765 3.763s-3.765-1.686-3.765-3.765 1.686-3.765 3.765-3.765h3.4l-7.257-20.71h-4.313c-1.040 0-1.883-0.843-1.883-1.883s0.843-1.883 1.883-1.883h5.659c0.817 0.006 1.51 0.525 1.776 1.251l0.004 0.013 1.095 3.133h27.864c0.003 0 0.006-0 0.009-0 1.040 0 1.884 0.843 1.885 1.883v0c-0.006 0.279-0.064 0.542-0.165 0.783l0.005-0.014zM11.752 8.194l3.469 9.943 16.18-1.079 3.994-8.863h-23.642z"></path>
</symbol>
<symbol id="search" viewBox="0 0 32 32">
<path d="M31.111 26.862c0.511 0.537 0.825 1.265 0.825 2.067 0 1.657-1.344 3.001-3.001 3.001-0.804 0-1.535-0.316-2.074-0.832l0.001 0.001-8.769-8.78c-1.753 1.056-3.87 1.68-6.132 1.68-6.645 0-12.032-5.387-12.032-12.032s5.387-12.032 12.032-12.032c6.645 0 12.032 5.387 12.032 12.032 0 2.255-0.62 4.365-1.7 6.169l0.030-0.055 8.788 8.78zM12.011 3.016c-4.963 0-8.987 4.024-8.987 8.987s4.024 8.987 8.987 8.987c4.963 0 8.987-4.024 8.987-8.987v0c-0.003-4.962-4.025-8.984-8.987-8.987h-0z"></path>
</symbol>
<symbol id="facebook" viewBox="0 0 32 32">
<path d="M18.467 10.486v-2.757c0-0.414 0.019-0.735 0.058-0.961s0.126-0.45 0.262-0.67c0.136-0.22 0.356-0.372 0.66-0.456s0.709-0.126 1.214-0.126h2.757v-5.514h-4.408c-2.55 0-4.382 0.605-5.496 1.815s-1.67 2.994-1.67 5.35v3.32h-3.301v5.515h3.301v16h6.622v-16h4.408l0.583-5.515h-4.99z"></path>
</symbol>
<symbol id="instagram" viewBox="0 0 32 32">
<path d="M28.8 0h-25.6c-1.76 0-3.2 1.44-3.2 3.2v25.6c0 1.76 1.44 3.2 3.2 3.2h25.6c1.76 0 3.2-1.44 3.2-3.2v-25.6c0-1.76-1.44-3.2-3.2-3.2zM16 9.6c3.52 0 6.4 2.88 6.4 6.4s-2.88 6.4-6.4 6.4-6.4-2.88-6.4-6.4 2.88-6.4 6.4-6.4zM4 28.8c-0.48 0-0.8-0.32-0.8-0.8v-13.6h3.36c-0.16 0.48-0.16 1.12-0.16 1.6 0 5.28 4.32 9.6 9.6 9.6s9.6-4.32 9.6-9.6c0-0.48 0-1.12-0.16-1.6h3.36v13.6c0 0.48-0.32 0.8-0.8 0.8h-24zM28.8 7.2c0 0.48-0.32 0.8-0.8 0.8h-3.2c-0.48 0-0.8-0.32-0.8-0.8v-3.2c0-0.48 0.32-0.8 0.8-0.8h3.2c0.48 0 0.8 0.32 0.8 0.8v3.2z"></path>
</symbol>
<symbol id="pinterest" viewBox="0 0 32 32">
<path d="M28.3 8.898c-0.874-6.324-7.176-9.544-13.9-8.79-5.316 0.596-10.616 4.894-10.836 11.040-0.134 3.752 0.93 6.566 4.5 7.358 1.546-2.736-0.498-3.334-0.818-5.316-1.31-8.1 9.344-13.632 14.924-7.972 3.864 3.92 1.318 15.972-4.906 14.718-5.962-1.196 2.92-10.79-1.838-12.672-3.868-1.532-5.922 4.68-4.088 7.768-1.076 5.31-3.392 10.31-2.454 16.968 3.040-2.208 4.066-6.43 4.906-10.836 1.528 0.93 2.346 1.892 4.294 2.042 7.184 0.558 11.202-7.172 10.216-14.308z"></path>
</symbol>
<symbol id="twitter" viewBox="0 0 32 32">
<path d="M32 6.079c-1.098 0.5-2.371 0.864-3.706 1.028l-0.063 0.006c1.356-0.812 2.394-2.1 2.885-3.629-1.272 0.752-2.675 1.298-4.171 1.594-1.198-1.278-2.901-2.074-4.791-2.074-3.625 0-6.565 2.939-6.565 6.563 0 0.514 0.058 1.016 0.17 1.496-5.455-0.274-10.292-2.887-13.529-6.859-0.566 0.968-0.888 2.096-0.888 3.299 0 2.278 1.16 4.287 2.919 5.463-1.097-0.037-2.116-0.338-3.006-0.841l0.033 0.017v0.082c0 3.179 2.264 5.833 5.265 6.437-0.55 0.148-1.13 0.23-1.73 0.23-0.424 0-0.834-0.042-1.236-0.122 0.836 2.61 3.259 4.507 6.131 4.559-2.246 1.76-5.077 2.805-8.152 2.805-0.53 0-1.052-0.032-1.566-0.090 2.905 1.866 6.355 2.953 10.062 2.953 12.076 0 18.677-10.002 18.677-18.677l-0.022-0.85c1.29-0.92 2.405-2.076 3.283-3.391z"></path>
</symbol>

</defs>
</svg>
