<svg xmlns="http://www.w3.org/2000/svg" width="17" height="17" viewBox="0 0 17 17">
  <metadata><?xpacket begin="﻿" id="W5M0MpCehiHzreSzNTczkc9d"?>
<x:xmpmeta xmlns:x="adobe:ns:meta/" x:xmptk="Adobe XMP Core 5.6-c142 79.160924, 2017/07/13-01:06:39        ">
   <rdf:RDF xmlns:rdf="http://www.w3.org/1999/02/22-rdf-syntax-ns#">
      <rdf:Description rdf:about=""/>
   </rdf:RDF>
</x:xmpmeta>        
<?xpacket end="w"?></metadata>
<defs>
    <style>
      .cls-1 {
        fill: #fff;
        fill-rule: evenodd;
      }
    </style>
  </defs>
  <path id="Shape_128_" data-name="Shape 128 " class="cls-1" d="M15.617,4.149H9.936l2.241-2.682a0.569,0.569,0,0,0,.1.02A0.666,0.666,0,1,0,11.614.821a0.657,0.657,0,0,0,.046.226l-2.592,3.1H8.824l-2.591-3.1A0.67,0.67,0,0,0,6.278.821a0.667,0.667,0,1,0-.667.666,0.549,0.549,0,0,0,.1-0.02L7.956,4.149H2.275A1.333,1.333,0,0,0,.942,5.479V14.8a1.332,1.332,0,0,0,1.334,1.331H15.617A1.332,1.332,0,0,0,16.95,14.8V5.479A1.333,1.333,0,0,0,15.617,4.149Zm-2.669,9.318A1.332,1.332,0,0,1,11.614,14.8h-8a1.333,1.333,0,0,1-1.334-1.331V6.811A1.333,1.333,0,0,1,3.61,5.479h8a1.332,1.332,0,0,1,1.334,1.332v6.656Zm1.966-5.949a0.951,0.951,0,1,1,.952-0.951A0.952,0.952,0,0,1,14.914,7.518Z"/>
</svg>
